<svg xmlns="http://www.w3.org/2000/svg" width="59" height="64" viewBox="0 0 59 64"><g><g><path fill="#1c3046" d="M10.164 63.966v-3.988h2.339v1.629h44.183V7.626h-3.2V5.273h5.54v58.693zM.034-.018h51.853V56.67H.035zm2.337 54.336h47.181V2.335H2.372v51.983zm37.01-13.866a2.929 2.929 0 0 1-2.918-2.938c0-.041.021-.075.023-.115a7580.04 7580.04 0 0 0-3.748-2.203c-.503.415-1.121.698-1.822.698-.2 0-.376-.077-.564-.115-1.228 1.854-4.276 4.946-5.874 7.36.192.392.323.818.323 1.285a2.929 2.929 0 0 1-2.918 2.938 2.929 2.929 0 0 1-2.919-2.938c0-.133.059-.247.076-.376l-3.332-2.744c-.388.192-.81.323-1.27.323a2.927 2.927 0 0 1-2.92-2.935 2.925 2.925 0 0 1 2.92-2.936c1.606-.002 2.919 1.312 2.919 2.936 0 .282-.086.537-.16.795l3.087 2.545c.466-.316.995-.545 1.599-.545.277 0 .527.086.78.159 1.255-1.897 4.251-4.914 5.782-7.227-.255-.436-.441-.917-.441-1.46 0-1.62 1.302-2.934 2.912-2.934a2.924 2.924 0 0 1 2.914 2.934c0 .05-.026.092-.028.142l3.728 2.191c.507-.428 1.138-.717 1.852-.717 1.612 0 2.916 1.316 2.916 2.939s-1.304 2.938-2.916 2.938zM10.448 18.337h31.56v2.466h-31.56zm0-7.772h31.56v2.468h-31.56z"/></g></g></svg>