<svg xmlns="http://www.w3.org/2000/svg" width="59" height="72" viewBox="0 0 59 72"><g><g><path fill="#1c3046" d="M59 61.114V72H0V61.114c0-7.132 4.94-13.19 12.012-14.737l9.228-2.017v-2.87c-3.443-2.446-5.722-6.37-5.875-10.823-3.055-3.173-4.745-7.3-4.745-11.688v-1.908c0-5.305 2.44-10.218 6.697-13.475a17.612 17.612 0 0 1 10.65-3.597h1.986C35.64 0 40.785 3.187 43.26 8.18c2.886.377 5.12 2.814 5.12 5.756v5.043c0 4.39-1.69 8.515-4.745 11.688-.152 4.453-2.432 8.377-5.875 10.823v2.87l9.228 2.018C54.06 47.924 59 53.982 59 61.113zM36.89 46.546l-5.46 4.48 5.564 3.91 1.8-7.973zm-1.49-1.8v-1.9a14.255 14.255 0 0 1-5.9 1.282c-2.108 0-4.102-.468-5.9-1.283v1.9l5.9 4.84zM23.8 19.74c3.83 0 7.437-2.009 9.407-5.243l.344-.563h2.48l.35.517a6.783 6.783 0 0 0 5.633 2.967h1.646v9.48a14.423 14.423 0 0 0 2.36-7.92v-5.044c0-1.921-1.588-3.484-3.54-3.484h-.778l-.307-.704c-1.964-4.51-6.455-7.425-11.442-7.425h-1.986a15.211 15.211 0 0 0-9.202 3.108C15.09 8.244 12.98 12.488 12.98 17.07v1.907c0 2.854.83 5.577 2.36 7.92v-7.157zm5.7 22.065c6.507 0 11.8-5.21 11.8-11.613V19.715a9.145 9.145 0 0 1-6.465-3.409c-2.464 3.569-6.627 5.758-11.035 5.758h-6.1v8.129c0 6.403 5.293 11.613 11.8 11.613zm-9.296 5.158l1.8 7.974 5.565-3.911-5.46-4.48zm5.715 10.379L24.555 56l-4.08 2.869-2.574-11.4-5.378 1.176C6.54 49.952 2.36 55.08 2.36 61.113v8.564h9.44v-4.645h2.36v4.645h10.714zm4.72-.879l1.86-1.832-3-2.109-2.999 2.108 1.861 1.831-1.119 13.215h4.515zm26 4.65c0-6.033-4.179-11.162-10.163-12.47L41.1 47.469l-2.575 11.4L34.445 56l-1.364 1.343 1.044 12.334H44.84v-4.645h2.36v4.645h9.44z"/></g></g></svg>