<svg xmlns="http://www.w3.org/2000/svg" width="75" height="55" viewBox="0 0 75 55"><g><g><path fill="#1e3248" d="M69.729 55H5.27A5.278 5.278 0 0 1 0 49.729V5.27A5.278 5.278 0 0 1 5.271 0H69.73A5.278 5.278 0 0 1 75 5.27V49.73a5.278 5.278 0 0 1-5.271 5.27zM72.5 5.27A2.774 2.774 0 0 0 69.729 2.5H5.27A2.774 2.774 0 0 0 2.5 5.27V49.73a2.773 2.773 0 0 0 2.771 2.77H69.73a2.773 2.773 0 0 0 2.771-2.77zM65 40c-.325 0-.651-.138-.888-.363a1.308 1.308 0 0 1-.362-.887c0-.325.136-.651.362-.888.463-.462 1.3-.462 1.775 0 .225.237.363.563.363.888 0 .325-.138.65-.363.887A1.315 1.315 0 0 1 65 40zm0-6.25H37.5a1.249 1.249 0 1 1 0-2.5H65a1.249 1.249 0 1 1 0 2.5zm0-7.5H37.5a1.249 1.249 0 1 1 0-2.5H65a1.249 1.249 0 1 1 0 2.5zm-8.75-7.5H55a1.25 1.25 0 1 1 0-2.5h1.25a1.25 1.25 0 1 1 0 2.5zm-6.25 0H37.5a1.25 1.25 0 1 1 0-2.5H50a1.25 1.25 0 1 1 0 2.5zM18.75 45c-12.5 0-12.5-2.349-12.5-3.353v-1.656c0-1.96 1.069-3.76 2.789-4.697l4.711-2.323v-.47c-2.035-1.11-3.466-2.94-4.265-5.455A3.72 3.72 0 0 1 7.5 23.75V22.5a3.73 3.73 0 0 1 1.417-2.92 13.96 13.96 0 0 1 .877-3.309c.185-.454.342-.79.47-1.066.338-.729.338-.729.097-1.948a19.21 19.21 0 0 1-.25-1.607 1.484 1.484 0 0 1 .918-1.559 1.49 1.49 0 0 1 1.752.466c.246.312.633.647 1.144.992 1.369.92 2.95 1.013 4.03.925.259-.02.524-.03.795-.03 5.734 0 9.031 2.395 9.811 7.12A3.727 3.727 0 0 1 30 22.5v1.25a3.72 3.72 0 0 1-1.985 3.296c-.799 2.514-2.23 4.344-4.265 5.455v.484l4.547 2.322a5.322 5.322 0 0 1 2.953 4.784v1.556c0 1.004 0 3.353-12.5 3.353zm10-4.909a2.833 2.833 0 0 0-1.576-2.549l-4.719-2.411a2.2 2.2 0 0 1-1.205-1.969v-2.264l.755-.326c1.896-.817 3.129-2.376 3.769-4.767l.178-.667.658-.204c.524-.163.89-.65.89-1.184V22.5c0-.455-.261-.876-.679-1.099l-.581-.307-.078-.653c-.446-3.802-2.73-5.497-7.41-5.497-.205 0-.403.007-.597.023-1.916.146-3.683-.211-5.153-1.05.107.963-.047 1.433-.47 2.343-.116.249-.257.552-.423.958-.393.96-.654 2.04-.778 3.213l-.069.661-.586.313A1.249 1.249 0 0 0 10 22.5v1.25c0 .535.366 1.021.889 1.185l.657.205.179.666c.64 2.391 1.872 3.95 3.769 4.768l.755.324v2.254a2.22 2.22 0 0 1-1.238 1.985l-4.821 2.377c-.871.473-1.44 1.433-1.44 2.477v1.374c.78.475 3.952 1.135 10 1.135 6.047 0 9.22-.66 10-1.135zM37.5 37.5h1.25a1.249 1.249 0 1 1 0 2.5H37.5a1.249 1.249 0 1 1 0-2.5zm6.25 0h2.5a1.249 1.249 0 1 1 0 2.5h-2.5a1.249 1.249 0 1 1 0-2.5zm7.5 0h1.25a1.249 1.249 0 1 1 0 2.5h-1.25a1.249 1.249 0 1 1 0-2.5zm6.25 0H60a1.249 1.249 0 1 1 0 2.5h-2.5a1.249 1.249 0 1 1 0-2.5z"/></g></g></svg>