<?xml version="1.0" encoding="utf-8"?>
<!-- Generator: Adobe Illustrator 17.0.0, SVG Export Plug-In . SVG Version: 6.00 Build 0)  -->
<!DOCTYPE svg PUBLIC "-//W3C//DTD SVG 1.1//EN" "http://www.w3.org/Graphics/SVG/1.1/DTD/svg11.dtd">
<svg version="1.1" id="lock_copy_8_1_" xmlns="http://www.w3.org/2000/svg" xmlns:xlink="http://www.w3.org/1999/xlink" x="0px"
	 y="0px" width="15px" height="22px" viewBox="0 0 15 22" enable-background="new 0 0 15 22" xml:space="preserve">
<g id="lock_copy_8">
	<g>
		<path fill-rule="evenodd" clip-rule="evenodd" fill="#00A1D3" d="M6.562,15.995v1.222c0,0.528,0.42,0.957,0.938,0.957
			c0.517,0,0.937-0.429,0.937-0.957v-1.222c0.558-0.332,0.938-0.942,0.938-1.648c0-1.057-0.839-1.913-1.875-1.913
			c-1.036,0-1.875,0.857-1.875,1.913C5.625,15.054,6.005,15.664,6.562,15.995z M13.125,8.608V5.739C13.125,2.569,10.606,0,7.5,0
			C4.393,0,1.875,2.569,1.875,5.739v2.869C0.839,8.608,0,9.465,0,10.521v9.566C0,21.143,0.839,22,1.875,22h11.25
			C14.16,22,15,21.143,15,20.087v-9.566C15,9.465,14.16,8.608,13.125,8.608z M3.75,5.739c0-2.113,1.679-3.826,3.75-3.826
			c2.071,0,3.75,1.713,3.75,3.826v2.869h-7.5V5.739z M13.125,20.087H1.875v-9.565h11.25V20.087z"/>
	</g>
</g>
</svg>
