<svg xmlns="http://www.w3.org/2000/svg" width="70" height="67" viewBox="0 0 70 67"><g><g><path fill="#1c3046" d="M68.974 22.97h-1.166v1.172c0 .048-.004.095-.01.141.006.047.01.093.01.141V64.94h1.166c.567 0 1.026.46 1.026 1.03 0 .568-.46 1.03-1.026 1.03H1.025A1.028 1.028 0 0 1 0 65.97c0-.57.459-1.03 1.025-1.03h1.167v-5.572-36.397H1.025a1.033 1.033 0 0 1-.756-1.726L12.055 8.332V4.258h-.07a1.028 1.028 0 0 1-1.026-1.03c0-.568.46-1.03 1.026-1.03h6.576c.566 0 1.025.462 1.025 1.03 0 .57-.459 1.03-1.025 1.03h-.07v3.444h4.524V6.531c0-.39.22-.747.567-.921L34.542.106c.288-.145.628-.145.917 0L46.418 5.61c.347.174.567.53.567.92v1.172h4.525V4.258h-.07a1.028 1.028 0 0 1-1.026-1.03c0-.568.459-1.03 1.025-1.03h6.576c.566 0 1.025.462 1.025 1.03 0 .57-.459 1.03-1.025 1.03h-.07v4.074L69.73 21.245c.275.3.347.737.183 1.11a1.025 1.025 0 0 1-.939.616zM27.258 64.94h15.484v-2.343H27.258zm12.196-4.403v-13.35h-8.908v13.35zM16.44 4.258h-2.333v3.444h2.333zm6.576 5.504h-9.483L3.356 20.911h19.659zm22.944 13.209a1.028 1.028 0 0 1-1.025-1.03V7.167L35 2.18l-9.934 4.988v14.774c0 .569-.46 1.03-1.026 1.03H4.242V64.94h20.965v-3.373c0-.569.46-1.03 1.025-1.03h2.263v-14.38c0-.569.459-1.03 1.025-1.03h10.96c.566 0 1.025.461 1.025 1.03v14.38h2.262c.567 0 1.026.461 1.026 1.03v3.373h20.964V24.424c0-.048.005-.094.01-.14a1.044 1.044 0 0 1-.01-.142v-1.171zm9.935-18.713H53.56v3.444h2.333zm.574 5.504h-9.483v11.149h19.658zm5.93 48.432H44.864a1.028 1.028 0 0 1-1.025-1.03c0-.569.46-1.03 1.025-1.03h.071v-9.977c0-.569.46-1.03 1.025-1.03h15.344c.566 0 1.025.461 1.025 1.03v9.977h.07c.567 0 1.026.461 1.026 1.03s-.459 1.03-1.025 1.03zm-9.792-11.007h-5.621v8.947h5.62zm7.672 0h-5.621v8.947h5.62zm1.025-6.604H45.959a1.028 1.028 0 0 1-1.025-1.03V28.544c0-.569.46-1.03 1.025-1.03h15.344c.566 0 1.025.461 1.025 1.03v11.007c0 .57-.459 1.03-1.025 1.03zm-8.697-11.008h-5.621v8.948h5.62zm7.672 0h-5.621v8.948h5.62zM40.48 40.583H29.52a1.028 1.028 0 0 1-1.025-1.03V28.544c0-.569.459-1.03 1.025-1.03h10.96c.566 0 1.025.462 1.025 1.03v11.007c0 .57-.46 1.03-1.025 1.03zm-6.506-11.008h-3.428v8.948h3.428zm5.48 0h-3.429v8.948h3.43zm1.026-6.604H29.52a1.028 1.028 0 0 1-1.025-1.03V10.934c0-.569.459-1.03 1.025-1.03h10.96c.566 0 1.025.461 1.025 1.03V21.94c0 .569-.46 1.03-1.025 1.03zm-6.506-11.008h-3.428v8.948h3.428zm5.48 0h-3.429v8.948h3.43zm-14.318 46.23H7.601a1.028 1.028 0 0 1-1.025-1.029c0-.569.459-1.03 1.025-1.03h.07v-9.977c0-.569.46-1.03 1.026-1.03H24.04c.567 0 1.026.461 1.026 1.03v9.977h.07c.567 0 1.026.461 1.026 1.03s-.46 1.03-1.026 1.03zm-9.793-11.006h-5.62v8.947h5.62zm7.672 0h-5.621v8.947h5.62zm1.025-6.604H8.697a1.028 1.028 0 0 1-1.026-1.03V28.544c0-.569.46-1.03 1.026-1.03H24.04c.567 0 1.026.461 1.026 1.03v11.007c0 .57-.46 1.03-1.026 1.03zm-8.697-11.008h-5.62v8.948h5.62zm7.672 0h-5.621v8.948h5.62zM33.904 49.53h2.192c.566 0 1.025.46 1.025 1.03 0 .568-.459 1.03-1.025 1.03h-2.192a1.028 1.028 0 0 1-1.025-1.03c0-.57.459-1.03 1.025-1.03z"/></g></g></svg>