<svg xmlns="http://www.w3.org/2000/svg" width="71" height="65" viewBox="0 0 71 65"><g><g><path fill="#1c3046" d="M62.651 63.25c-7.59 3.94-16.953.988-20.893-6.604H1.048A1.074 1.074 0 0 1 0 55.541V5.614A1.084 1.084 0 0 1 1.12 4.58h9.057c.64 0 1.163.524 1.163 1.163 0 .64-.523 1.164-1.163 1.164H2.327v47.411h38.442c-.538-1.556-.8-3.2-.8-4.843 0-8.566 6.95-15.488 15.5-15.488 1.657-.015 3.3.262 4.87.785V6.908h-9.378c-.64 0-1.163-.524-1.163-1.164 0-.64.524-1.163 1.163-1.163H61.59c.596 0 1.09.509 1.076 1.105v30.076a15.566 15.566 0 0 1 6.586 6.588c3.94 7.592.989 16.958-6.6 20.9zm-7.168-26.935c-7.284 0-13.187 5.904-13.187 13.19 0 7.287 5.903 13.191 13.187 13.191 7.284-.014 13.187-5.919 13.187-13.19 0-7.287-5.903-13.191-13.187-13.191zm6.994 15.081h-7.023a1.099 1.099 0 0 1-1.076-1.149v-9.06c0-.64.524-1.164 1.163-1.164.64 0 1.164.524 1.164 1.164v7.897h5.772c.64 0 1.163.509 1.163 1.149s-.524 1.163-1.163 1.163zM46.38 11.387c-.64 0-1.163-.523-1.163-1.163v-9.06c0-.64.524-1.164 1.163-1.164.64 0 1.164.523 1.164 1.163v9.06c0 .64-.524 1.164-1.164 1.164zm-5.728-4.48H21.824c-.64 0-1.163-.523-1.163-1.163s.524-1.163 1.163-1.163h18.829c.64 0 1.163.524 1.163 1.163 0 .64-.523 1.164-1.163 1.164zM8.666 18.835h45.32c.64 0 1.163.523 1.163 1.163a1.17 1.17 0 0 1-1.178 1.163H8.666c-.64 0-1.163-.523-1.163-1.163s.523-1.163 1.163-1.163zm0 18.179h19.628c.64 0 1.164.523 1.164 1.163s-.524 1.164-1.164 1.164H8.666c-.64 0-1.163-.524-1.163-1.164 0-.64.523-1.163 1.163-1.163zm0-9.017h34.735c.64 0 1.163.524 1.163 1.163 0 .64-.509 1.164-1.163 1.164H8.666c-.64 0-1.163-.524-1.163-1.164 0-.64.523-1.163 1.163-1.163zm7.619-16.609c-.64 0-1.163-.523-1.163-1.163v-9.06c0-.64.523-1.164 1.163-1.164s1.163.523 1.163 1.163v9.06c0 .64-.523 1.164-1.163 1.164z"/></g></g></svg>